<svg xmlns="http://www.w3.org/2000/svg" viewBox="0 0 44.83 22.63"><defs><style>.cls-1{fill:#fff;}</style></defs><g id="Layer_2" data-name="Layer 2"><g id="Layer_1-2" data-name="Layer 1"><path class="cls-1" d="M12.33,10.18,12,9.5l1.89-2.61-.21-.32c-1-1.51-1.57-2.53-2-3.26A4.13,4.13,0,0,0,8.17,1H0c1.85,2.76,9,13.9,9.85,15.42,2.91,5.43,4.36,5.7,5.33,5.87l.16,0a2.41,2.41,0,0,0,.4,0,3.83,3.83,0,0,0,2-.75c1.07-.76,2.44-3.5,2.91-4,0,0,.15-.15,0-.35l-2.44-3.74a6.12,6.12,0,0,1-5.9-3.41"/><path class="cls-1" d="M26.71,9.21l-.31-.72.51-.58A17.12,17.12,0,0,0,28.1,6c-1-1.63-1.92-3.08-2.56-4.07-2.8-3.76-5.84-1.15-6.82.33s-5.31,7.32-5.31,7.32c2.51,4.56,7.35,2.14,7.35,2.14.81.2,3.15,5.15,4.2,6.81,1.92,3.89,3.84,4.09,4.66,4.09A5.47,5.47,0,0,0,33,20.52a26.42,26.42,0,0,0,2.1-3l-2-3.26a5.06,5.06,0,0,1-.52-.08c-4-.75-5.81-4.76-5.89-4.93"/><path class="cls-1" d="M27.84,8.72s1.57,3.58,5,4.22,5.56-2.15,7.33-5.08S44.43.72,44.83.4H36.05s-3-.14-5.5,3.73a52.77,52.77,0,0,1-2.71,4.59"/></g></g></svg>